# xmcd CD database file
#
# Track frame offsets:
#	150
#	11307
#	29442
#	44499
#	58698
#	81025
#	98291
#	110475
#	127419
#	143461
#	159553
#	174890
#	187037
#	208844
#
# Disc length: 2993 seconds
#
# Revision: 0
# Processed by: cddbd v1.5.2PL0 Copyright (c) Steve Scherf et al.
# Submitted via: CDex 1.51
#
DISCID=b60baf0e
DTITLE=FROM WEST HELENA TO CHICAGO(Chicago - Mississippi Blues) - Chicago Blues Session Volume 8
DYEAR=1992
DGENRE=Blues
TTITLE0=Honeyboy Edwards - West Helena Blues
TTITLE1=Honeyboy Edwards - Drop Down Mama
TTITLE2=Honeyboy Edwards - Build Myself A Cave
TTITLE3=Honeyboy Edwards - Little Boy Blue
TTITLE4=Honeyboy Edwards - Sweet Home Chicago
TTITLE5=Magic Slim - Bring Your Fine-Self Home
TTITLE6=John Primer - Mojo Hand
TTITLE7=Eddie C. Campbell - My Sister Taught Me
TTITLE8=Eddie C. Campbell - Rock Me
TTITLE9=Eddie C. Campbell - Just Walking
TTITLE10=Eddie C. Campbell - Last Affair
TTITLE11=Eddie C. Campbell - Jump, Jump, Jump
TTITLE12=Johnny B. Moore - Straighten Up Woman
TTITLE13=Johnny B. Moore - Memphis Bound
EXTD=YEAR: 1992
EXTT0=
EXTT1=
EXTT2=
EXTT3=
EXTT4=
EXTT5=
EXTT6=
EXTT7=
EXTT8=
EXTT9=
EXTT10=
EXTT11=
EXTT12=
EXTT13=
PLAYORDER=
